<svg xmlns="http://www.w3.org/2000/svg" viewBox="0 0 880 320" font-family="Segoe UI, Arial, sans-serif">
  <rect width="880" height="320" fill="#ffffff"/>
  <g text-anchor="middle">
    <rect x="20" y="120" width="140" height="70" rx="10" fill="#f1f5f9" stroke="#94a3b8"/>
    <text x="90" y="150" font-size="13" font-weight="bold" fill="#0f172a">client</text>
    <text x="90" y="170" font-size="11" fill="#475569">:4000 + :3000</text>
    <rect x="300" y="60" width="220" height="200" rx="12" fill="#eef2ff" stroke="#4f46e5" stroke-width="2"/>
    <text x="410" y="92" font-size="15" font-weight="bold" fill="#3730a3">agentgateway</text>
    <rect x="325" y="110" width="170" height="50" rx="8" fill="#ffffff" stroke="#4f46e5"/>
    <text x="410" y="140" font-size="12" fill="#3730a3">LLM :4000</text>
    <rect x="325" y="175" width="170" height="50" rx="8" fill="#ffffff" stroke="#4f46e5"/>
    <text x="410" y="205" font-size="12" fill="#3730a3">MCP :3000</text>
    <rect x="660" y="60" width="190" height="80" rx="10" fill="#f1f5f9" stroke="#94a3b8"/>
    <text x="755" y="92" font-size="13" font-weight="bold" fill="#0f172a">OpenAI</text>
    <text x="755" y="115" font-size="11" fill="#475569">api.openai.com</text>
    <rect x="660" y="180" width="190" height="80" rx="10" fill="#ecfdf5" stroke="#10b981"/>
    <text x="755" y="210" font-size="13" font-weight="bold" fill="#065f46">mcp-everything</text>
    <text x="755" y="233" font-size="11" fill="#475569">separate container</text>
    <path d="M160 155 H300" stroke="#4f46e5" stroke-width="2" marker-end="url(#a)"/>
    <path d="M520 135 H660" stroke="#4f46e5" stroke-width="2" marker-end="url(#a)"/>
    <path d="M520 200 H660" stroke="#10b981" stroke-width="2" marker-end="url(#b)"/>
    <text x="590" y="190" font-size="11" fill="#065f46">:8080/mcp/</text>
    <text x="430" y="285" font-size="12" fill="#475569">shared Docker network "agw"</text>
    <text x="440" y="35" font-size="17" font-weight="bold" fill="#0f172a">Lab 3 · LLM + MCP, one gateway</text>
  </g>
  <defs>
    <marker id="a" markerWidth="8" markerHeight="8" refX="6" refY="3" orient="auto"><path d="M0 0 L6 3 L0 6 z" fill="#4f46e5"/></marker>
    <marker id="b" markerWidth="8" markerHeight="8" refX="6" refY="3" orient="auto"><path d="M0 0 L6 3 L0 6 z" fill="#10b981"/></marker>
  </defs>
</svg>
